<?xml version="1.0" encoding="UTF-8" standalone="no"?>
<!DOCTYPE svg PUBLIC "-//W3C//DTD SVG 1.1//EN" "http://www.w3.org/Graphics/SVG/1.1/DTD/svg11.dtd">
<svg width="100%" height="100%" viewBox="0 0 329 239" version="1.1" xmlns="http://www.w3.org/2000/svg" xmlns:xlink="http://www.w3.org/1999/xlink" xml:space="preserve" xmlns:serif="http://www.serif.com/" style="fill-rule:evenodd;clip-rule:evenodd;stroke-linejoin:round;stroke-miterlimit:2;">
    <g transform="matrix(1,0,0,1,-114.962107,-75.975719)">
        <g transform="matrix(1,0,0,1,2,75)">
            <path d="M327.123,231.732C326.136,231.732 325.134,231.546 324.166,231.151C320.139,229.516 318.202,224.928 319.836,220.902C327.031,203.187 330.68,184.419 330.68,165.118C330.68,125.653 315.361,88.502 287.545,60.51C260.939,33.736 225.889,18.338 188.369,16.828C180.434,35.288 176.415,54.926 176.415,75.277L176.415,75.546C176.415,79.89 172.893,83.413 168.548,83.413L168.279,83.413C152.894,83.413 137.733,85.758 123.218,90.379C119.083,91.699 114.654,89.411 113.335,85.272C112.017,81.132 114.304,76.707 118.443,75.389C132.158,71.019 146.389,68.491 160.844,67.845C161.8,46.108 166.96,25.167 176.22,5.493C177.525,2.72 180.347,0.921 183.39,0.977C227.001,1.27 267.954,18.474 298.706,49.419C329.47,80.38 346.414,121.469 346.414,165.118C346.414,186.458 342.376,207.218 334.414,226.823C333.173,229.878 330.229,231.732 327.123,231.732Z" style="fill:rgb(62,115,91);fill-rule:nonzero;"/>
        </g>
        <g transform="matrix(1,0,0,1,2,75)">
            <path d="M176.047,83.505C176.043,83.507 176.037,83.507 176.033,83.508C176.037,83.507 176.043,83.507 176.047,83.505ZM176.031,83.508C176.026,83.508 176.022,83.509 176.018,83.509C176.022,83.509 176.026,83.508 176.031,83.508ZM176.012,83.509C176.009,83.511 176.006,83.511 176.004,83.511C176.006,83.511 176.009,83.511 176.012,83.509ZM180.086,83.86L180.088,83.86L180.086,83.86ZM180.093,83.86L180.099,83.86L180.093,83.86ZM180.102,83.86L180.11,83.86L180.102,83.86ZM180.112,83.86L180.119,83.86L180.112,83.86ZM180.122,83.86L180.131,83.86L180.122,83.86ZM204.924,87.963C204.996,87.977 205.068,87.992 205.141,88.005C205.069,87.992 204.997,87.977 204.924,87.963ZM311.386,151.372C311.428,151.441 311.467,151.509 311.505,151.578C311.811,152.129 312.111,152.672 312.411,153.222C313.021,154.339 313.624,155.467 314.213,156.61C316.033,160.134 317.742,163.763 319.291,167.392L319.854,168.722C321.346,172.315 322.699,175.914 323.889,179.458C324.035,179.895 324.185,180.343 324.329,180.785C325.412,184.094 326.412,187.522 327.29,190.952C327.517,191.836 327.739,192.728 327.953,193.627C329.765,184.301 330.68,174.776 330.68,165.118C330.68,140.267 324.422,115.686 312.584,94.034C302.67,75.903 288.724,59.67 272.254,47.088C247.859,28.458 218.952,18.049 188.369,16.828C181.399,33.044 177.45,50.168 176.593,67.887C176.853,67.9 177.113,67.914 177.372,67.931C177.698,67.944 178.023,67.964 178.345,67.987C178.676,68.001 179.005,68.022 179.329,68.047C179.718,68.073 180.155,68.104 180.599,68.138C180.711,68.145 180.824,68.153 180.937,68.161C181.602,68.21 182.246,68.262 182.884,68.322C183.498,68.372 184.187,68.436 184.871,68.506C186.195,68.64 187.523,68.791 188.849,68.953C189.53,69.041 190.174,69.128 190.818,69.216C191.288,69.277 191.781,69.349 192.275,69.424C192.625,69.471 192.972,69.523 193.317,69.579C193.564,69.613 193.808,69.652 194.055,69.696C194.539,69.77 195.024,69.846 195.509,69.933C195.721,69.965 195.937,70.001 196.148,70.037C196.626,70.117 197.134,70.208 197.644,70.307C199.966,70.72 202.355,71.203 204.637,71.722C205.856,71.996 207.087,72.291 208.309,72.598C208.433,72.626 208.557,72.657 208.683,72.691C209.041,72.781 209.398,72.873 209.75,72.967C210.636,73.196 211.558,73.441 212.469,73.698C212.955,73.831 213.5,73.986 214.039,74.145L214.4,74.25C214.748,74.349 215.133,74.464 215.522,74.58L215.788,74.659C219.036,75.642 222.267,76.729 225.433,77.901C225.891,78.068 226.378,78.256 226.867,78.45L226.88,78.454C227.348,78.631 227.813,78.808 228.274,78.994C228.583,79.112 229.008,79.28 229.433,79.449C229.475,79.465 229.576,79.506 229.617,79.523L231.564,80.325C231.735,80.393 231.912,80.468 232.083,80.542C232.461,80.7 232.84,80.861 233.212,81.021C233.61,81.193 233.998,81.36 234.378,81.532C234.917,81.767 235.527,82.037 236.138,82.32C236.679,82.565 237.282,82.844 237.885,83.124C240.32,84.27 242.688,85.453 244.957,86.657C245.386,86.874 245.922,87.163 246.457,87.459C247.308,87.915 248.238,88.434 249.164,88.961C249.394,89.087 249.699,89.263 250.005,89.44C251.983,90.576 253.933,91.754 255.994,93.055C256.377,93.296 256.777,93.554 257.174,93.812L257.318,93.904C257.781,94.199 258.295,94.535 258.805,94.88C259.161,95.112 259.601,95.406 260.049,95.707C260.113,95.75 260.177,95.793 260.239,95.839C260.281,95.866 260.351,95.911 260.393,95.939L261.588,96.76C262.959,97.709 264.344,98.698 265.711,99.71C266.085,99.986 266.469,100.27 266.849,100.559C267.342,100.93 267.892,101.346 268.444,101.776L268.539,101.849C268.942,102.16 269.345,102.472 269.749,102.789C269.753,102.793 269.851,102.87 269.856,102.874L271.327,104.049C271.696,104.347 272.066,104.645 272.435,104.953L273.668,105.972C275.001,107.096 276.279,108.201 277.541,109.326L278.598,110.278C279.881,111.44 281.195,112.671 282.505,113.941C282.577,114.01 282.646,114.078 282.713,114.145C283.108,114.526 283.499,114.91 283.883,115.296C284.247,115.654 284.643,116.051 285.041,116.454C285.634,117.052 286.241,117.676 286.836,118.301C287.147,118.621 287.497,118.988 287.841,119.361C288.143,119.678 288.441,119.997 288.738,120.317L288.978,120.576C289.003,120.603 289.1,120.71 289.126,120.737L289.45,121.093C289.788,121.464 290.121,121.829 290.454,122.205L291.629,123.523C291.673,123.573 291.716,123.623 291.759,123.673C292.543,124.565 293.312,125.468 294.079,126.377L294.223,126.551C294.263,126.596 294.271,126.607 294.312,126.654L295.321,127.874C295.387,127.954 295.453,128.035 295.515,128.118C295.871,128.554 296.225,128.991 296.576,129.432C296.947,129.893 297.339,130.393 297.732,130.895L298.893,132.398C299.25,132.863 299.604,133.339 299.955,133.807C300.414,134.411 300.898,135.078 301.378,135.744C301.672,136.15 301.978,136.579 302.284,137.01L302.417,137.199C302.745,137.663 303.073,138.128 303.395,138.599C304.421,140.077 305.46,141.638 306.554,143.346C306.892,143.872 307.235,144.406 307.569,144.948C307.928,145.509 308.277,146.076 308.62,146.65C308.908,147.12 309.245,147.683 309.579,148.249C309.896,148.771 310.262,149.403 310.621,150.036C310.844,150.417 311.115,150.891 311.386,151.372ZM324.397,232.623C322.799,232.623 321.217,232.136 319.877,231.196C317.88,229.792 316.647,227.543 316.539,225.105C316.271,219.07 315.63,212.999 314.632,207.063C314.535,206.474 314.436,205.893 314.331,205.316C314.114,204.137 313.889,202.961 313.648,201.79C313.527,201.192 313.409,200.626 313.283,200.06L313.129,199.37C312.79,197.85 312.434,196.351 312.051,194.868C311.255,191.758 310.354,188.664 309.369,185.658C309.236,185.246 309.104,184.855 308.974,184.47C307.899,181.267 306.679,178.017 305.342,174.803L304.823,173.572C303.422,170.292 301.877,167.015 300.231,163.826C299.698,162.793 299.159,161.779 298.604,160.766L297.82,159.343C297.805,159.317 297.79,159.291 297.775,159.265C297.515,158.805 297.255,158.347 296.986,157.888C296.647,157.289 296.367,156.803 296.077,156.327C295.737,155.749 295.452,155.271 295.16,154.797C294.837,154.26 294.567,153.819 294.287,153.384C294.255,153.334 294.224,153.286 294.194,153.237C293.908,152.769 293.611,152.307 293.314,151.845C292.332,150.312 291.369,148.865 290.447,147.536C290.144,147.095 289.852,146.682 289.56,146.268L289.441,146.1C289.18,145.732 288.905,145.344 288.625,144.958C288.205,144.373 287.796,143.813 287.378,143.261C287.033,142.798 286.722,142.38 286.405,141.967L285.325,140.57C284.995,140.147 284.645,139.702 284.286,139.257C283.902,138.772 283.545,138.336 283.189,137.898C283.145,137.845 283.103,137.79 283.061,137.735L282.193,136.689L282.193,136.688L282.085,136.56C281.329,135.663 280.605,134.816 279.871,133.979C279.846,133.951 279.821,133.922 279.795,133.892L278.729,132.697C278.389,132.313 278.11,132.007 277.827,131.697L277.212,131.027C276.951,130.745 276.691,130.465 276.424,130.186C276.391,130.152 276.358,130.117 276.325,130.081C276.052,129.785 275.773,129.494 275.49,129.202C274.918,128.602 274.386,128.054 273.852,127.515C273.493,127.15 273.147,126.805 272.796,126.459C272.415,126.078 272.067,125.735 271.715,125.398C271.647,125.333 271.582,125.267 271.517,125.201L271.466,125.152C270.402,124.121 269.231,123.02 268.044,121.947L267.07,121.07C265.913,120.036 264.748,119.031 263.574,118.042L262.409,117.078C262.061,116.788 261.754,116.541 261.449,116.295L258.799,114.208C258.299,113.817 257.829,113.46 257.357,113.107C256.989,112.828 256.676,112.596 256.361,112.364C255.113,111.44 253.861,110.548 252.6,109.672L251.564,108.961C251.45,108.887 251.333,108.808 251.218,108.728C250.837,108.473 250.461,108.221 250.081,107.973C249.606,107.652 249.216,107.397 248.823,107.146L248.618,107.015C248.284,106.799 247.951,106.581 247.613,106.37C245.719,105.174 243.955,104.109 242.2,103.1C241.919,102.938 241.694,102.808 241.469,102.683C240.575,102.177 239.752,101.716 238.925,101.272C238.46,101.015 238.081,100.809 237.698,100.614C235.535,99.469 233.396,98.4 231.224,97.377C230.702,97.136 230.144,96.877 229.585,96.624C229.014,96.361 228.505,96.136 227.991,95.911C227.606,95.739 227.295,95.603 226.983,95.469C226.668,95.333 226.338,95.193 226.008,95.056C225.959,95.036 225.91,95.014 225.86,94.994L225.704,94.927C225.647,94.904 225.579,94.876 225.522,94.851L224.277,94.334C224.134,94.278 223.891,94.182 223.64,94.078L222.503,93.631C222.031,93.441 221.67,93.305 221.309,93.168L221.177,93.118C220.71,92.934 220.359,92.798 220.002,92.668C217.1,91.594 214.173,90.609 211.27,89.729L209.6,89.24C209.144,89.104 208.7,88.978 208.259,88.858C207.396,88.614 206.574,88.398 205.753,88.184C205.419,88.096 205.116,88.016 204.813,87.942C204.774,87.932 204.735,87.923 204.696,87.912C204.663,87.905 204.63,87.897 204.597,87.888C203.461,87.602 202.315,87.326 201.165,87.068C199.105,86.599 196.961,86.165 194.776,85.776C194.287,85.683 193.901,85.613 193.513,85.548L193.163,85.491C193.047,85.475 192.932,85.455 192.816,85.434C192.401,85.358 191.985,85.297 191.57,85.233C191.487,85.22 191.405,85.206 191.323,85.191L191.155,85.163C191.048,85.149 190.941,85.134 190.835,85.116C190.608,85.078 190.378,85.044 190.148,85.014C190.095,85.007 190.042,84.999 189.988,84.992C189.582,84.929 189.177,84.868 188.771,84.816C188.094,84.723 187.497,84.642 186.896,84.566C185.714,84.42 184.503,84.282 183.28,84.16C182.68,84.097 182.089,84.043 181.499,83.994C180.888,83.938 180.349,83.893 179.814,83.854C179.808,83.854 179.797,83.853 179.783,83.852C179.688,83.848 179.593,83.842 179.498,83.835C179.061,83.799 178.624,83.768 178.181,83.739C177.946,83.721 177.775,83.71 177.605,83.703C177.516,83.7 177.426,83.694 177.337,83.688C177.131,83.673 176.921,83.658 176.71,83.651C176.626,83.649 176.542,83.643 176.457,83.638C175.959,83.606 175.456,83.582 174.953,83.564C174.898,83.563 174.844,83.56 174.789,83.556C174.775,83.556 174.761,83.556 174.746,83.555C174.122,83.526 173.497,83.501 172.873,83.483C172.808,83.482 172.742,83.481 172.698,83.479C172.01,83.458 171.321,83.444 170.632,83.432C169.911,83.418 169.23,83.413 168.548,83.413C164.203,83.413 160.682,79.89 160.682,75.546L160.682,75.277C160.682,50.878 165.909,27.401 176.22,5.493C177.525,2.72 180.358,0.943 183.389,0.977C219.292,1.212 253.323,12.835 281.804,34.583C300.271,48.691 315.271,66.153 326.389,86.486C339.49,110.448 346.414,137.638 346.414,165.118C346.414,186.458 342.376,207.218 334.414,226.823C333.555,228.938 331.82,230.576 329.658,231.312C328.691,231.64 327.717,231.961 326.741,232.266C325.972,232.506 325.183,232.623 324.397,232.623Z" style="fill:rgb(62,115,91);fill-rule:nonzero;"/>
        </g>
        <g transform="matrix(1,0,0,1,2,75)">
            <path d="M174.073,83.483L174.074,83.483L174.073,83.483ZM176.047,83.505C176.043,83.507 176.038,83.507 176.033,83.508C176.038,83.507 176.043,83.507 176.047,83.505ZM179.673,83.844C179.677,83.844 179.681,83.844 179.685,83.846C179.681,83.844 179.676,83.844 179.673,83.844ZM180.085,83.86L180.088,83.86L180.085,83.86ZM180.092,83.86L180.099,83.86L180.092,83.86ZM180.103,83.86L180.11,83.86L180.103,83.86ZM180.112,83.86L180.119,83.86L180.112,83.86ZM180.122,83.86L180.131,83.86L180.122,83.86ZM204.939,87.966C205.005,87.98 205.072,87.993 205.141,88.005C205.074,87.993 205.006,87.98 204.939,87.966ZM273.888,224.195L273.937,224.195C273.99,224.195 274.043,224.195 274.097,224.197C274.581,224.206 275.065,224.212 275.55,224.217C276.127,224.222 276.682,224.22 277.257,224.228C277.647,224.228 278.036,224.228 278.422,224.218C278.994,224.212 279.478,224.206 279.962,224.197C280.016,224.195 280.069,224.195 280.123,224.195L281.597,224.156C282.585,224.124 283.559,224.084 284.528,224.034L287.227,223.873C287.792,223.834 288.383,223.792 288.979,223.746C289.506,223.705 290.03,223.66 290.552,223.613C291.652,223.512 292.768,223.399 293.874,223.276L296.879,222.903C298.375,222.7 299.876,222.474 301.368,222.228C306.341,221.405 311.291,220.323 316.141,218.997C315.798,214.994 315.294,210.998 314.632,207.063C314.535,206.474 314.436,205.893 314.331,205.316C314.114,204.137 313.889,202.961 313.648,201.79C313.527,201.192 313.409,200.626 313.283,200.06L313.129,199.37C312.79,197.85 312.434,196.351 312.051,194.868C311.255,191.758 310.354,188.664 309.369,185.658C309.248,185.282 309.139,184.962 309.033,184.642L308.974,184.47C307.899,181.267 306.679,178.017 305.342,174.803L304.823,173.572C303.422,170.292 301.877,167.015 300.231,163.826C299.7,162.789 299.156,161.775 298.604,160.766L297.821,159.345C297.805,159.317 297.79,159.291 297.775,159.265C297.515,158.805 297.255,158.347 296.987,157.888C296.647,157.289 296.367,156.803 296.077,156.327C295.737,155.749 295.452,155.271 295.16,154.797C294.837,154.26 294.567,153.819 294.287,153.384C294.255,153.334 294.224,153.286 294.194,153.237C293.908,152.769 293.611,152.307 293.314,151.845C292.415,150.431 291.485,149.033 290.447,147.536C290.144,147.095 289.852,146.682 289.56,146.268L289.441,146.1C289.18,145.732 288.905,145.344 288.625,144.958C288.205,144.373 287.796,143.813 287.378,143.261C287.033,142.798 286.722,142.38 286.405,141.967L285.325,140.57C284.995,140.147 284.645,139.702 284.286,139.257C283.902,138.772 283.545,138.336 283.189,137.898C283.145,137.845 283.102,137.79 283.061,137.735L282.193,136.689L282.193,136.688L282.085,136.56C281.329,135.663 280.605,134.816 279.871,133.979C279.845,133.951 279.821,133.921 279.795,133.892L278.729,132.697C278.389,132.313 278.11,132.007 277.827,131.697L277.212,131.027C276.951,130.745 276.691,130.465 276.424,130.186C276.391,130.152 276.358,130.117 276.325,130.081C276.052,129.785 275.773,129.494 275.49,129.202C274.918,128.602 274.386,128.054 273.852,127.515C273.493,127.15 273.147,126.805 272.796,126.459C272.415,126.078 272.067,125.735 271.715,125.398C271.647,125.333 271.582,125.267 271.517,125.201L271.466,125.152C270.402,124.121 269.231,123.02 268.044,121.947L267.07,121.07C265.913,120.036 264.748,119.031 263.574,118.04L262.409,117.078C262.061,116.788 261.754,116.541 261.449,116.295L258.799,114.208C258.299,113.817 257.829,113.46 257.357,113.107C256.989,112.828 256.676,112.596 256.362,112.364C255.113,111.44 253.861,110.548 252.6,109.672L251.564,108.961C251.449,108.886 251.331,108.808 251.216,108.726C250.836,108.471 250.46,108.221 250.081,107.973C249.606,107.652 249.216,107.397 248.823,107.146L248.618,107.015C248.284,106.799 247.951,106.581 247.613,106.37C245.719,105.174 243.955,104.109 242.2,103.1C241.919,102.938 241.694,102.808 241.469,102.683C240.575,102.177 239.752,101.717 238.925,101.272C238.434,101.001 238.029,100.789 237.62,100.574C235.535,99.469 233.396,98.4 231.224,97.377C230.702,97.136 230.144,96.877 229.585,96.624C229.092,96.396 228.657,96.205 228.226,96.015L226.983,95.469C226.668,95.333 226.338,95.193 226.008,95.056C225.959,95.035 225.91,95.014 225.86,94.994L225.704,94.927C225.647,94.904 225.579,94.876 225.522,94.851L224.277,94.334C224.134,94.278 223.891,94.181 223.639,94.077L222.503,93.631C222.031,93.441 221.67,93.305 221.309,93.168L221.177,93.118C220.803,92.971 220.544,92.873 220.283,92.775L219.903,92.632C217.1,91.594 214.173,90.609 211.27,89.729C210.875,89.611 210.458,89.487 210.041,89.367L209.6,89.24C209.151,89.107 208.718,88.982 208.279,88.863C207.396,88.614 206.574,88.398 205.753,88.184L204.813,87.942C204.774,87.932 204.735,87.923 204.697,87.912C204.656,87.903 204.614,87.893 204.573,87.882C203.441,87.593 202.308,87.325 201.165,87.068C199.105,86.599 196.961,86.165 194.776,85.776C194.286,85.683 193.901,85.613 193.513,85.548L193.163,85.491C193.047,85.475 192.932,85.455 192.816,85.434C192.401,85.358 191.985,85.297 191.57,85.233C191.487,85.22 191.405,85.206 191.323,85.191L191.155,85.163C191.048,85.149 190.941,85.134 190.835,85.116C190.608,85.078 190.378,85.044 190.148,85.014C190.095,85.007 190.042,84.999 189.988,84.992C189.582,84.929 189.177,84.868 188.771,84.816C188.094,84.723 187.497,84.642 186.896,84.566C185.714,84.42 184.503,84.282 183.28,84.16C182.68,84.097 182.089,84.043 181.499,83.994C180.89,83.938 180.357,83.893 179.819,83.854C179.813,83.854 179.799,83.853 179.783,83.852C179.688,83.848 179.593,83.842 179.498,83.835C179.061,83.799 178.624,83.768 178.181,83.739C177.946,83.721 177.775,83.71 177.605,83.703C177.516,83.7 177.426,83.694 177.337,83.688C177.131,83.673 176.921,83.658 176.71,83.651C176.626,83.649 176.542,83.643 176.457,83.638C175.959,83.606 175.456,83.582 174.953,83.564C174.898,83.563 174.844,83.56 174.789,83.556C174.775,83.556 174.761,83.555 174.746,83.555C174.122,83.526 173.499,83.501 172.875,83.483C172.809,83.482 172.742,83.481 172.698,83.479C172.01,83.458 171.321,83.444 170.632,83.432C169.911,83.418 169.23,83.413 168.548,83.413L168.279,83.413C154.955,83.413 141.799,85.171 129.085,88.644C135.277,161.303 193.483,218.944 266.845,223.872L267.82,223.937C268.386,223.972 268.95,224.005 269.515,224.034C270.494,224.083 271.472,224.124 272.452,224.156C272.821,224.165 273.231,224.175 273.647,224.19C273.727,224.191 273.807,224.193 273.888,224.195ZM273.272,239.914C273.275,239.914 273.278,239.914 273.282,239.915C273.278,239.914 273.275,239.914 273.272,239.914ZM277.11,239.961C276.541,239.961 275.978,239.955 275.41,239.951C274.88,239.946 274.368,239.939 273.858,239.928L273.748,239.928C273.648,239.928 273.547,239.927 273.446,239.923C273.363,239.922 273.258,239.92 273.195,239.918C272.803,239.904 272.411,239.893 272.014,239.883C270.874,239.848 269.796,239.801 268.72,239.746C268.099,239.715 267.478,239.68 266.856,239.642L265.776,239.57C182.382,233.967 116.684,166.758 112.972,83.233C112.814,79.682 115.057,76.467 118.443,75.389C134.504,70.273 151.272,67.68 168.279,67.68L168.548,67.68C169.341,67.68 170.134,67.685 170.926,67.702C171.62,67.714 172.35,67.729 173.082,67.75C173.147,67.751 173.212,67.753 173.255,67.754C173.922,67.773 174.588,67.8 175.254,67.828C175.415,67.831 175.575,67.837 175.735,67.849C176.281,67.87 176.828,67.897 177.37,67.931C177.697,67.944 178.023,67.964 178.344,67.987C178.674,68.001 179.004,68.022 179.329,68.047C179.718,68.073 180.155,68.104 180.599,68.138C180.711,68.145 180.824,68.153 180.937,68.161C181.604,68.21 182.244,68.262 182.884,68.322C183.498,68.372 184.187,68.436 184.871,68.506C186.195,68.64 187.523,68.791 188.849,68.953C189.53,69.041 190.174,69.128 190.818,69.217C191.289,69.277 191.781,69.349 192.276,69.425C192.625,69.471 192.973,69.523 193.317,69.579C193.564,69.613 193.808,69.652 194.055,69.696C194.539,69.77 195.024,69.846 195.508,69.933C195.721,69.965 195.937,70.001 196.148,70.037C196.626,70.117 197.135,70.208 197.644,70.307C199.966,70.72 202.355,71.203 204.637,71.722C205.862,71.998 207.093,72.288 208.324,72.601C208.444,72.628 208.564,72.659 208.685,72.692C208.968,72.763 209.248,72.835 209.53,72.91L209.718,72.958C210.636,73.196 211.558,73.441 212.469,73.698C212.947,73.827 213.493,73.983 214.039,74.145L214.4,74.25C214.844,74.376 215.331,74.521 215.812,74.666C219.036,75.642 222.267,76.729 225.433,77.901L225.838,78.054C226.182,78.184 226.524,78.313 226.867,78.45L226.88,78.454C227.348,78.631 227.813,78.808 228.274,78.994C228.583,79.112 229.008,79.28 229.433,79.449C229.475,79.465 229.576,79.506 229.617,79.523L231.564,80.326C231.736,80.395 231.912,80.469 232.084,80.543C232.462,80.7 232.84,80.861 233.212,81.021L234.582,81.622C235.1,81.851 235.621,82.081 236.138,82.32C236.679,82.565 237.282,82.844 237.885,83.124C240.32,84.27 242.688,85.453 244.957,86.657C245.437,86.908 245.948,87.178 246.457,87.459C247.308,87.916 248.238,88.434 249.164,88.961C249.394,89.087 249.699,89.263 250.005,89.44C251.983,90.576 253.933,91.754 255.994,93.055C256.377,93.296 256.777,93.554 257.174,93.812L257.318,93.904C257.781,94.199 258.295,94.535 258.805,94.88C259.161,95.112 259.601,95.406 260.049,95.707C260.113,95.75 260.177,95.793 260.239,95.839C260.281,95.866 260.351,95.911 260.393,95.939L261.588,96.76C262.959,97.709 264.344,98.698 265.711,99.71C266.085,99.986 266.469,100.27 266.849,100.559C267.342,100.93 267.892,101.346 268.444,101.776L268.539,101.849C268.942,102.16 269.345,102.472 269.749,102.789C269.753,102.793 269.851,102.87 269.856,102.874L271.327,104.049C271.696,104.347 272.066,104.647 272.435,104.953L273.668,105.972C275.001,107.096 276.279,108.201 277.541,109.326L278.598,110.278C279.881,111.44 281.195,112.671 282.505,113.941C282.578,114.01 282.646,114.078 282.714,114.147C283.109,114.526 283.499,114.912 283.883,115.296C284.247,115.654 284.643,116.051 285.041,116.454C285.634,117.052 286.241,117.676 286.836,118.301C287.147,118.621 287.496,118.988 287.84,119.36C288.143,119.678 288.441,119.997 288.738,120.317L288.978,120.576C289.003,120.603 289.1,120.71 289.126,120.737L289.45,121.093C289.788,121.464 290.121,121.829 290.454,122.205L291.629,123.523C291.673,123.573 291.716,123.622 291.758,123.673C292.542,124.565 293.312,125.468 294.079,126.377L294.223,126.551C294.263,126.596 294.271,126.607 294.31,126.654L295.321,127.874C295.387,127.954 295.452,128.035 295.515,128.117C295.87,128.554 296.225,128.991 296.576,129.432C296.947,129.893 297.339,130.393 297.732,130.895L298.893,132.398C299.25,132.863 299.604,133.339 299.955,133.807C300.414,134.411 300.898,135.078 301.378,135.744C301.672,136.15 301.978,136.579 302.284,137.01L302.417,137.199C302.745,137.663 303.073,138.128 303.395,138.599C304.536,140.244 305.581,141.812 306.571,143.371C306.892,143.873 307.235,144.406 307.567,144.947C307.928,145.508 308.277,146.076 308.62,146.65C308.908,147.12 309.245,147.683 309.579,148.249C309.896,148.771 310.262,149.403 310.621,150.036C310.844,150.417 311.115,150.891 311.386,151.372C311.427,151.44 311.467,151.509 311.505,151.578C311.811,152.129 312.111,152.672 312.411,153.222C313.024,154.343 313.632,155.481 314.22,156.623C316.033,160.134 317.742,163.763 319.291,167.392L319.854,168.722C321.346,172.315 322.699,175.914 323.889,179.458L323.943,179.619C324.076,180.015 324.21,180.411 324.337,180.812C325.412,184.094 326.412,187.522 327.29,190.952C327.711,192.587 328.109,194.251 328.481,195.923L328.648,196.67C328.793,197.328 328.932,197.987 329.065,198.648C329.323,199.9 329.569,201.188 329.806,202.48C329.927,203.142 330.042,203.809 330.151,204.469C331.251,211.023 331.96,217.736 332.256,224.409C332.414,227.957 330.173,231.17 326.789,232.25C319.371,234.618 311.681,236.468 303.933,237.751C302.287,238.023 300.636,238.272 298.975,238.496L295.703,238.902C294.41,239.046 293.189,239.17 291.969,239.283C291.369,239.335 290.784,239.386 290.199,239.432C289.562,239.482 288.926,239.526 288.286,239.572L287.984,239.591C287.693,239.612 287.4,239.631 287.105,239.646L285.988,239.712C285.73,239.728 285.47,239.743 285.214,239.751C284.271,239.802 283.19,239.848 282.103,239.881L280.548,239.924C280.469,239.927 280.39,239.928 280.311,239.928L280.201,239.928C279.691,239.939 279.18,239.946 278.669,239.951C278.212,239.961 277.661,239.961 277.11,239.961Z" style="fill:rgb(62,115,91);fill-rule:nonzero;"/>
        </g>
        <g transform="matrix(1,0,0,1,2,75)">
            <path d="M385.51,75.546L385.524,75.546L385.51,75.546ZM289.992,41.256C302.926,52.491 313.911,65.541 322.774,80.203C340.191,72.945 358.527,68.816 377.465,67.883C376.608,50.166 372.66,33.042 365.69,16.828C338.461,17.915 312.563,26.285 289.992,41.256ZM319.492,98.127C316.699,98.127 314.007,96.636 312.584,94.034C302.67,75.903 288.724,59.67 272.254,47.088C270.305,45.598 269.162,43.288 269.163,40.836C269.163,38.383 270.307,36.073 272.254,34.583C300.735,12.835 334.766,1.212 370.669,0.977C373.684,0.962 376.534,2.721 377.839,5.493C388.15,27.399 393.377,50.878 393.377,75.277L393.377,75.546C393.377,79.887 389.863,83.407 385.524,83.413C363.609,83.448 342.514,88.148 322.827,97.382C321.749,97.888 320.612,98.127 319.492,98.127Z" style="fill:rgb(62,115,91);fill-rule:nonzero;"/>
        </g>
        <g transform="matrix(1,0,0,1,2,75)">
            <path d="M330.302,94.12C340.864,116.148 346.414,140.517 346.414,165.118C346.414,180.501 344.316,195.581 340.162,210.146C358.159,201.679 374.46,189.607 387.867,174.591C409.175,150.723 422.223,120.406 424.97,88.644C412.256,85.17 399.102,83.413 385.78,83.413L385.51,83.413C366.358,83.444 347.82,87.042 330.302,94.12ZM302.877,237.817C299.1,237.817 295.768,235.089 295.127,231.242C294.414,226.958 297.306,222.906 301.589,222.191C308.22,221.081 314.798,219.515 321.159,217.53C327.478,200.811 330.68,183.199 330.68,165.118C330.68,140.267 324.422,115.686 312.584,94.034C311.543,92.129 311.335,89.878 312.009,87.814C312.684,85.752 314.181,84.059 316.146,83.137C337.933,72.919 361.266,67.719 385.498,67.68L385.78,67.68C402.787,67.68 419.554,70.273 435.616,75.389C439.003,76.467 441.246,79.682 441.087,83.234C439.416,120.812 424.682,156.979 399.602,185.069C374.726,212.931 340.836,231.626 304.175,237.71C303.739,237.782 303.305,237.817 302.877,237.817Z" style="fill:rgb(62,115,91);fill-rule:nonzero;"/>
        </g>
    </g>
</svg>
